<?xml version="1.0" encoding="utf-8"?>
<!-- Generator: Adobe Illustrator 22.1.0, SVG Export Plug-In . SVG Version: 6.00 Build 0)  -->
<svg version="1.1" id="Layer_1" xmlns="http://www.w3.org/2000/svg" xmlns:xlink="http://www.w3.org/1999/xlink" x="0px" y="0px"
	 viewBox="0 0 400 400" style="enable-background:new 0 0 400 400;" xml:space="preserve">
<style type="text/css">
	.st0{fill:#00EA0B;}
</style>
<path class="st0" d="M153,140.9c17.1,0.9,93.5,0,114.5-1.1c4.8-0.2,9.3,0.4,13.5,3.3c20.7,14.4,42.7,26.1,64.3,38.8
	c8.7,5.1,8.7,6.4,1.1,13.1c-22.5,19.9-45.3,39.4-67.5,59.7c-7.4,6.8-15.2,9.1-24.6,8.7c-31.2-1.4-62.3-2.7-93.5-3.7
	c-13.4-0.4-25.9-2.8-37.6-11.8C107,235.6,56.7,203.4,48,198c0.9-1.7,0.9-2.3,1.2-2.5c24.9-16.1,48.5-34.5,74.7-48.3
	C133.2,142.4,142.4,140.3,153,140.9z"/>
<path d="M256.1,231.2c-0.6,9.8-5.3,14.3-15.4,13.9c-17.7,1.1-66.8,5.5-75.4,3.9c-7.9-1.5-10.6-3.8-11-11.5
	c-0.4-8.7,1.2-50.5,1.2-62.8c0.1-13,5.2-18,18.6-16.7c16.6,1.7,61.9,2.5,67.7,4.1c5.1,1.4,8.2,4.5,9.2,9.9
	C253.9,186.8,256.4,226.4,256.1,231.2z"/>
</svg>
