<?xml version="1.0" encoding="utf-8"?>
<!-- Generator: Adobe Illustrator 27.3.1, SVG Export Plug-In . SVG Version: 6.00 Build 0)  -->
<svg version="1.1" id="Layer_1" xmlns="http://www.w3.org/2000/svg" xmlns:xlink="http://www.w3.org/1999/xlink" x="0px" y="0px"
	 viewBox="0 0 846.45 352.38" style="enable-background:new 0 0 846.45 352.38;" xml:space="preserve">
<style type="text/css">
	.st0{fill:#1F1F1F;}
</style>
<path class="st0" d="M312.79,33.37c40.17,2.21,219.68,0.09,269.04-2.47c11.23-0.57,21.88,0.91,31.81,7.78
	c48.7,33.81,100.42,61.36,151.07,91.26c20.38,12.02,20.35,15.08,2.5,30.89c-52.91,46.69-106.47,92.53-158.59,140.24
	c-17.38,15.87-35.66,21.42-57.7,20.41c-73.18-3.37-146.43-6.33-219.63-8.71c-31.59-1.03-60.81-6.6-88.4-27.7
	c-38.05-29.1-156.36-104.92-176.74-117.42c2.01-4.1,2.23-5.35,2.88-5.8c58.45-37.89,113.89-81.16,175.4-113.56
	C266.28,36.83,287.85,32,312.79,33.37z"/>
</svg>
